<?xml version="1.0" encoding="utf-8"?>
<!-- Generator: Adobe Illustrator 27.0.0, SVG Export Plug-In . SVG Version: 6.00 Build 0)  -->
<svg version="1.1" id="Capa_1" xmlns="http://www.w3.org/2000/svg" xmlns:xlink="http://www.w3.org/1999/xlink" x="0px" y="0px"
     viewBox="0 0 1200 1200" enable-background="new 0 0 1200 1200" xml:space="preserve">
<g>
	<path fill="#FFFFFF" d="M912.07,796.73c-68.371,27.679-136.501,55.951-204.805,83.794
		c-56.314,22.955-112.566,46.079-169.194,68.239c-18.802,7.358-28.927,21.61-34.009,39.038c-6.686,22.93-10.822,46.575-9.253,70.892
		c0.746,11.548,4.391,21.469,11.922,29.921c5.484,6.155,12.3,10.029,21.013,9.629c10.975-0.504,21.73-1.381,32.311-5.191
		c61.896-22.287,123.922-44.218,185.902-66.271c70.427-25.059,140.852-50.12,211.278-75.179
		c28.164-10.021,56.35-19.983,84.475-30.112c0.631-0.227,1.254-0.422,1.868-0.587c-2.3-25.379,0.261-50.562,5.566-75.551
		c-0.978,0.562-1.972,1.086-2.995,1.531c-13.711,5.965-27.606,11.521-41.536,16.965c-124.475,48.65-248.976,97.236-373.462,145.857
		c-26.943,10.523-53.872,21.085-80.778,31.702c-5.593,2.207-11.089,4.573-17.29,3.212c-1.261-1.471-3.175-2.76-3.536-4.392
		c-0.357-1.615,0.304-4.594,1.466-5.223c7.848-4.247,15.712-8.631,24.001-11.869c91.951-35.911,183.978-71.624,275.988-107.384
		c63.222-24.572,126.42-49.207,189.699-73.631c10.371-4.003,21.013-7.32,31.642-10.608c4.305-17.19,9.708-34.288,15.529-51.292
		c-3.04,1.463-6.104,2.875-9.209,4.175c-87.323,36.557-174.688,73.012-262.08,109.404c-77.265,32.175-154.566,64.264-231.886,96.307
		c-10.045,4.163-20.298,7.824-29.651,11.409c-2.87-1.435-5.259-1.859-6.181-3.254c-1.793-2.708-1.097-6.233,1.504-7.783
		c6.788-4.043,13.739-7.97,21.016-11.007c86.449-36.077,172.923-72.094,259.485-107.899
		c74.569-30.845,149.223-61.488,223.927-92.004c12.557-5.13,25.384-9.606,38.207-14.066c4.526-12.792,9.165-25.53,13.619-38.216
		c-0.751,0.297-1.505,0.595-2.292,0.902C1026.76,750.647,969.353,773.541,912.07,796.73z M531.874,1075.945
		c1.257-8.816,9.241-9.821,15.362-12.11c94.339-35.275,188.757-70.337,283.179-105.388c60.774-22.56,121.557-45.094,182.409-67.441
		c8.342-3.063,17.07-5.123,25.721-7.235c1.163-0.284,2.92,1.87,4.401,2.894c-0.489,1.864-0.399,4.284-1.564,5.482
		c-7.268,7.469-17.467,9.367-26.652,12.869c-53.124,20.255-106.393,40.132-159.651,60.034
		c-99.002,36.995-198.031,73.918-297.044,110.884c-1.867,0.697-3.636,1.665-5.517,2.32
		C540.467,1082.455,531.099,1081.379,531.874,1075.945z"/>
    <path fill="#E6A3C5" d="M88.698,417.045c3.544-29.568,5.329-59.469,13.923-88.387c5.814-19.563,17.887-32.095,36.949-39.701
		c24.991-9.971,49.204-21.875,73.917-32.567c86.934-37.612,173.957-75.02,260.91-112.587
		c63.13-27.274,126.142-54.822,189.323-81.976c42.016-18.058,36.03-17.607,59.346,16.644
		c34.789,51.104,67.657,103.529,100.793,155.741c30.987,48.827,61.247,98.115,91.846,147.188
		c40.105,64.319,80.194,128.648,120.359,192.93c18.5,29.609,37.208,59.088,55.716,88.693c3.699,5.916,7.017,12.079,10.334,18.223
		c16.397,30.381,14.463,34.366-17.78,46.943c-57.573,22.459-114.98,45.352-172.263,68.542
		c-68.371,27.679-136.501,55.951-204.806,83.794c-56.314,22.955-112.566,46.079-169.193,68.24
		c-18.802,7.358-28.927,21.61-34.008,39.037c-6.687,22.93-10.822,46.575-9.253,70.892c0.745,11.548,4.391,21.469,11.922,29.921
		c5.484,6.155,12.3,10.029,21.013,9.629c10.975-0.503,21.729-1.381,32.311-5.191c61.896-22.287,123.922-44.218,185.902-66.271
		c70.427-25.059,140.852-50.12,211.278-75.179c28.164-10.021,56.35-19.983,84.475-30.112c5.243-1.888,9.953-1.785,13.186,2.984
		c3.195,4.712,1.771,9.598-1.584,13.738c-2.494,3.078-5.151,6.191-8.297,8.534c-3.962,2.95-8.32,5.516-12.812,7.584
		c-59.792,27.521-121.188,51.034-183.37,72.481c-55.591,19.174-111.167,38.199-165.649,60.568
		c-55.302,22.705-112.008,41.926-169.249,59.343c-24.607,7.488-39.141,2.514-53.984-18.681
		c-8.574-12.242-16.909-24.773-24.034-37.889c-34.267-63.082-68.352-126.266-101.983-189.689
		c-28.036-52.871-54.841-106.397-83.1-159.146c-49.907-93.162-100.36-186.032-150.964-278.818
		C92.023,448.108,85.247,434.051,88.698,417.045z M519.356,900.294c0-1.921,0.65-4.185-0.118-5.757
		c-2.616-5.356-5.584-10.556-8.675-15.66c-71.369-117.828-142.753-235.646-214.175-353.441
		c-34.162-56.343-68.284-112.71-102.711-168.89c-7.783-12.7-14.803-26.091-26.011-36.352c-1.186-1.086-4.114-1.711-5.269-0.995
		c-1.238,0.768-2.339,3.818-1.769,5.109c4.005,9.076,7.796,18.35,12.871,26.834c36.897,61.68,74.037,123.214,111.186,184.743
		c70.696,117.09,141.422,234.162,212.259,351.166c3.589,5.928,8.168,11.299,12.691,16.581c0.887,1.036,3.856,1.039,5.498,0.467
		C516.771,903.529,517.947,901.636,519.356,900.294z"/>
    <path fill="#E6A3C5" d="M535.048,1001.516c-2.87-1.435-5.259-1.859-6.182-3.254c-1.792-2.708-1.097-6.233,1.504-7.782
		c6.788-4.043,13.74-7.97,21.017-11.007c86.449-36.077,172.923-72.094,259.484-107.899c74.569-30.845,149.223-61.488,223.927-92.004
		c14.697-6.004,29.764-11.112,44.761-16.348c1.467-0.512,5.256,1.134,5.221,1.539c-0.232,2.659-0.408,6.648-2.097,7.629
		c-7.728,4.488-15.77,8.554-24.019,12.008c-87.323,36.557-174.689,73.012-262.08,109.404
		c-77.265,32.175-154.566,64.264-231.885,96.307C554.653,994.27,544.401,997.931,535.048,1001.516z"/>
    <path fill="#E6A3C5" d="M533.082,1044.62c-1.26-1.471-3.175-2.76-3.535-4.392c-0.357-1.616,0.304-4.594,1.466-5.223
		c7.848-4.247,15.712-8.631,24.001-11.868c91.951-35.911,183.979-71.624,275.988-107.384c63.222-24.572,126.42-49.207,189.7-73.631
		c11.116-4.291,22.544-7.796,33.935-11.32c1.27-0.393,4.135,1.122,4.655,2.404c0.612,1.508,0.134,4.519-1.03,5.491
		c-3.732,3.116-7.704,6.269-12.114,8.187c-13.711,5.965-27.606,11.521-41.536,16.966c-124.475,48.65-248.976,97.236-373.462,145.857
		c-26.943,10.523-53.872,21.085-80.778,31.702C544.779,1043.615,539.283,1045.981,533.082,1044.62z"/>
    <path fill="#E6A3C5" d="M1042.947,886.67c-0.49,1.859-0.4,4.279-1.566,5.477c-7.268,7.469-17.467,9.367-26.652,12.869
		c-53.124,20.255-106.393,40.132-159.651,60.034c-99.002,36.995-198.031,73.918-297.043,110.884
		c-1.867,0.697-3.637,1.665-5.517,2.32c-12.051,4.2-21.418,3.124-20.643-2.31c1.257-8.816,9.241-9.821,15.362-12.11
		c94.339-35.275,188.757-70.337,283.179-105.388c60.774-22.56,121.557-45.094,182.409-67.44c8.342-3.063,17.07-5.124,25.72-7.235
		C1039.707,883.488,1041.464,885.641,1042.947,886.67z"/>
    <path fill="#FFFFFF" d="M519.356,900.294c-1.409,1.342-2.585,3.234-4.222,3.805c-1.642,0.572-4.611,0.569-5.498-0.467
		c-4.524-5.282-9.102-10.654-12.691-16.581c-70.837-117.005-141.563-234.076-212.259-351.166
		c-37.15-61.529-74.289-123.063-111.186-184.743c-5.075-8.484-8.866-17.758-12.871-26.834c-0.57-1.291,0.531-4.341,1.769-5.109
		c1.155-0.717,4.083-0.091,5.269,0.995c11.207,10.262,18.228,23.652,26.011,36.352c34.427,56.18,68.549,112.548,102.711,168.89
		c71.422,117.795,142.807,235.613,214.175,353.441c3.092,5.104,6.06,10.304,8.675,15.66
		C520.006,896.109,519.356,898.373,519.356,900.294z"/>
</g>
</svg>
